<svg xmlns="http://www.w3.org/2000/svg" viewBox="0 0 320 320" role="img" aria-label="ShelfMate favicon">
  <defs>
    <linearGradient id="fav-bg" x1="0%" y1="0%" x2="100%" y2="100%">
      <stop offset="0%" stop-color="#0f172a"/>
      <stop offset="100%" stop-color="#1e3a5f"/>
    </linearGradient>
    <linearGradient id="fav-accent" x1="0%" y1="0%" x2="100%" y2="100%">
      <stop offset="0%" stop-color="#f97316"/>
      <stop offset="100%" stop-color="#fb923c"/>
    </linearGradient>
    <linearGradient id="fav-teal" x1="0%" y1="0%" x2="100%" y2="100%">
      <stop offset="0%" stop-color="#14b8a6"/>
      <stop offset="100%" stop-color="#2dd4bf"/>
    </linearGradient>
  </defs>
  <rect x="20" y="20" width="280" height="280" rx="72" fill="url(#fav-bg)"/>
  <rect x="52" y="92" width="216" height="18" rx="9" fill="rgba(248,250,252,0.18)"/>
  <rect x="52" y="210" width="216" height="18" rx="9" fill="rgba(248,250,252,0.18)"/>
  <rect x="68" y="86" width="58" height="136" rx="18" fill="url(#fav-accent)"/>
  <rect x="132" y="68" width="56" height="154" rx="18" fill="#f8fafc"/>
  <rect x="194" y="102" width="58" height="120" rx="18" fill="url(#fav-teal)"/>
  <circle cx="222" cy="114" r="10" fill="#f8fafc" opacity="0.92"/>
  <path d="M146 92h28" stroke="#e2e8f0" stroke-width="8" stroke-linecap="round" opacity="0.95"/>
  <path d="M146 118h28" stroke="#cbd5e1" stroke-width="8" stroke-linecap="round" opacity="0.75"/>
  <path d="M146 144h28" stroke="#cbd5e1" stroke-width="8" stroke-linecap="round" opacity="0.75"/>
  <path d="M83 118h28" stroke="#fff7ed" stroke-width="7" stroke-linecap="round" opacity="0.85"/>
  <path d="M83 140h28" stroke="#fff7ed" stroke-width="7" stroke-linecap="round" opacity="0.55"/>
  <path d="M208 156h30" stroke="#ecfeff" stroke-width="7" stroke-linecap="round" opacity="0.85"/>
  <path d="M208 178h30" stroke="#ecfeff" stroke-width="7" stroke-linecap="round" opacity="0.55"/>
</svg>
